<mxfile host="app.diagrams.net" modified="2024-03-13T16:53:56.504Z" agent="Mozilla/5.0 (Windows NT 10.0; Win64; x64) AppleWebKit/537.36 (KHTML, like Gecko) Chrome/122.0.0.0 Safari/537.36" etag="5RoFSFyjZAhFBMd_Bl96" version="24.0.5" type="device">
  <diagram name="Страница — 1" id="3HpP6PFuxwMjffoTaPqk">
    <mxGraphModel dx="1050" dy="557" grid="1" gridSize="10" guides="1" tooltips="1" connect="1" arrows="1" fold="1" page="1" pageScale="1" pageWidth="827" pageHeight="1169" math="0" shadow="0">
      <root>
        <mxCell id="0" />
        <mxCell id="1" parent="0" />
        <mxCell id="tYHoVu3lLdIAYSy5rbmb-2" value="" style="rounded=0;whiteSpace=wrap;html=1;" vertex="1" parent="1">
          <mxGeometry x="480" y="120" width="280" height="280" as="geometry" />
        </mxCell>
        <mxCell id="GuPjeiB4Vvk6E0f5icBI-1" value="" style="rounded=0;whiteSpace=wrap;html=1;" parent="1" vertex="1">
          <mxGeometry x="24" y="70" width="390" height="350" as="geometry" />
        </mxCell>
        <mxCell id="GuPjeiB4Vvk6E0f5icBI-2" value="&lt;font size=&quot;1&quot; face=&quot;Times New Roman&quot;&gt;&lt;b&gt;&lt;u style=&quot;font-size: 22px;&quot;&gt;Docker&lt;/u&gt;&lt;/b&gt;&lt;/font&gt;" style="text;html=1;align=center;verticalAlign=middle;whiteSpace=wrap;rounded=0;" parent="1" vertex="1">
          <mxGeometry x="40" y="80" width="60" height="30" as="geometry" />
        </mxCell>
        <mxCell id="GuPjeiB4Vvk6E0f5icBI-14" value="" style="group" parent="1" vertex="1" connectable="0">
          <mxGeometry x="40" y="280" width="160" height="120" as="geometry" />
        </mxCell>
        <mxCell id="GuPjeiB4Vvk6E0f5icBI-6" value="" style="shape=cube;whiteSpace=wrap;html=1;boundedLbl=1;backgroundOutline=1;darkOpacity=0.05;darkOpacity2=0.1;flipV=0;flipH=1;" parent="GuPjeiB4Vvk6E0f5icBI-14" vertex="1">
          <mxGeometry x="10" width="150" height="120" as="geometry" />
        </mxCell>
        <mxCell id="GuPjeiB4Vvk6E0f5icBI-8" value="" style="rounded=0;whiteSpace=wrap;html=1;" parent="GuPjeiB4Vvk6E0f5icBI-14" vertex="1">
          <mxGeometry x="30" y="50" width="90" height="50" as="geometry" />
        </mxCell>
        <mxCell id="GuPjeiB4Vvk6E0f5icBI-9" value="" style="rounded=0;whiteSpace=wrap;html=1;" parent="GuPjeiB4Vvk6E0f5icBI-14" vertex="1">
          <mxGeometry x="20" y="60" width="20" height="10" as="geometry" />
        </mxCell>
        <mxCell id="GuPjeiB4Vvk6E0f5icBI-11" value="" style="rounded=0;whiteSpace=wrap;html=1;" parent="GuPjeiB4Vvk6E0f5icBI-14" vertex="1">
          <mxGeometry x="20" y="80" width="20" height="10" as="geometry" />
        </mxCell>
        <mxCell id="GuPjeiB4Vvk6E0f5icBI-12" value="&lt;font size=&quot;1&quot; face=&quot;Times New Roman&quot;&gt;&lt;b style=&quot;font-size: 16px;&quot;&gt;&lt;u&gt;DB&lt;/u&gt;&lt;/b&gt;&lt;/font&gt;" style="text;html=1;align=center;verticalAlign=middle;whiteSpace=wrap;rounded=0;" parent="GuPjeiB4Vvk6E0f5icBI-14" vertex="1">
          <mxGeometry y="20" width="60" height="30" as="geometry" />
        </mxCell>
        <mxCell id="GuPjeiB4Vvk6E0f5icBI-13" value="PostgreSQL" style="text;html=1;align=center;verticalAlign=middle;whiteSpace=wrap;rounded=0;" parent="GuPjeiB4Vvk6E0f5icBI-14" vertex="1">
          <mxGeometry x="45" y="60" width="60" height="30" as="geometry" />
        </mxCell>
        <mxCell id="GuPjeiB4Vvk6E0f5icBI-15" value="" style="group" parent="1" vertex="1" connectable="0">
          <mxGeometry x="150" y="110" width="160" height="120" as="geometry" />
        </mxCell>
        <mxCell id="GuPjeiB4Vvk6E0f5icBI-16" value="" style="shape=cube;whiteSpace=wrap;html=1;boundedLbl=1;backgroundOutline=1;darkOpacity=0.05;darkOpacity2=0.1;flipV=0;flipH=1;" parent="GuPjeiB4Vvk6E0f5icBI-15" vertex="1">
          <mxGeometry x="10" width="150" height="120" as="geometry" />
        </mxCell>
        <mxCell id="GuPjeiB4Vvk6E0f5icBI-17" value="" style="rounded=0;whiteSpace=wrap;html=1;" parent="GuPjeiB4Vvk6E0f5icBI-15" vertex="1">
          <mxGeometry x="30" y="50" width="90" height="50" as="geometry" />
        </mxCell>
        <mxCell id="GuPjeiB4Vvk6E0f5icBI-18" value="" style="rounded=0;whiteSpace=wrap;html=1;" parent="GuPjeiB4Vvk6E0f5icBI-15" vertex="1">
          <mxGeometry x="20" y="60" width="20" height="10" as="geometry" />
        </mxCell>
        <mxCell id="GuPjeiB4Vvk6E0f5icBI-19" value="" style="rounded=0;whiteSpace=wrap;html=1;" parent="GuPjeiB4Vvk6E0f5icBI-15" vertex="1">
          <mxGeometry x="20" y="80" width="20" height="10" as="geometry" />
        </mxCell>
        <mxCell id="GuPjeiB4Vvk6E0f5icBI-20" value="&lt;font size=&quot;1&quot; face=&quot;Times New Roman&quot;&gt;&lt;b style=&quot;font-size: 16px;&quot;&gt;&lt;u&gt;BackEnd&lt;/u&gt;&lt;/b&gt;&lt;/font&gt;" style="text;html=1;align=center;verticalAlign=middle;whiteSpace=wrap;rounded=0;" parent="GuPjeiB4Vvk6E0f5icBI-15" vertex="1">
          <mxGeometry x="20" y="20" width="60" height="30" as="geometry" />
        </mxCell>
        <mxCell id="GuPjeiB4Vvk6E0f5icBI-21" value="Spring" style="text;html=1;align=center;verticalAlign=middle;whiteSpace=wrap;rounded=0;" parent="GuPjeiB4Vvk6E0f5icBI-15" vertex="1">
          <mxGeometry x="45" y="60" width="60" height="30" as="geometry" />
        </mxCell>
        <mxCell id="GuPjeiB4Vvk6E0f5icBI-22" value="" style="group" parent="1" vertex="1" connectable="0">
          <mxGeometry x="540" y="200" width="190" height="170" as="geometry" />
        </mxCell>
        <mxCell id="GuPjeiB4Vvk6E0f5icBI-23" value="" style="shape=cube;whiteSpace=wrap;html=1;boundedLbl=1;backgroundOutline=1;darkOpacity=0.05;darkOpacity2=0.1;flipV=0;flipH=1;" parent="GuPjeiB4Vvk6E0f5icBI-22" vertex="1">
          <mxGeometry x="10" width="150" height="120" as="geometry" />
        </mxCell>
        <mxCell id="GuPjeiB4Vvk6E0f5icBI-24" value="" style="rounded=0;whiteSpace=wrap;html=1;" parent="GuPjeiB4Vvk6E0f5icBI-22" vertex="1">
          <mxGeometry x="30" y="50" width="90" height="50" as="geometry" />
        </mxCell>
        <mxCell id="GuPjeiB4Vvk6E0f5icBI-25" value="" style="rounded=0;whiteSpace=wrap;html=1;" parent="GuPjeiB4Vvk6E0f5icBI-22" vertex="1">
          <mxGeometry x="20" y="60" width="20" height="10" as="geometry" />
        </mxCell>
        <mxCell id="GuPjeiB4Vvk6E0f5icBI-26" value="" style="rounded=0;whiteSpace=wrap;html=1;" parent="GuPjeiB4Vvk6E0f5icBI-22" vertex="1">
          <mxGeometry x="20" y="80" width="20" height="10" as="geometry" />
        </mxCell>
        <mxCell id="GuPjeiB4Vvk6E0f5icBI-27" value="&lt;font size=&quot;1&quot; face=&quot;Times New Roman&quot;&gt;&lt;b style=&quot;font-size: 16px;&quot;&gt;&lt;u&gt;FrontEnd&lt;/u&gt;&lt;/b&gt;&lt;/font&gt;" style="text;html=1;align=center;verticalAlign=middle;whiteSpace=wrap;rounded=0;" parent="GuPjeiB4Vvk6E0f5icBI-22" vertex="1">
          <mxGeometry x="20" y="20" width="60" height="30" as="geometry" />
        </mxCell>
        <mxCell id="GuPjeiB4Vvk6E0f5icBI-28" value="Flutter" style="text;html=1;align=center;verticalAlign=middle;whiteSpace=wrap;rounded=0;" parent="GuPjeiB4Vvk6E0f5icBI-22" vertex="1">
          <mxGeometry x="45" y="60" width="60" height="30" as="geometry" />
        </mxCell>
        <mxCell id="gHQUOAf359CfWs1BCbeZ-1" value="" style="endArrow=none;html=1;rounded=0;exitX=0.25;exitY=0;exitDx=0;exitDy=0;entryX=0.5;entryY=1;entryDx=0;entryDy=0;" parent="1" source="GuPjeiB4Vvk6E0f5icBI-8" target="GuPjeiB4Vvk6E0f5icBI-17" edge="1">
          <mxGeometry width="50" height="50" relative="1" as="geometry">
            <mxPoint x="230" y="270" as="sourcePoint" />
            <mxPoint x="280" y="220" as="targetPoint" />
            <Array as="points">
              <mxPoint x="93" y="250" />
              <mxPoint x="160" y="250" />
              <mxPoint x="225" y="250" />
            </Array>
          </mxGeometry>
        </mxCell>
        <mxCell id="gHQUOAf359CfWs1BCbeZ-2" value="" style="endArrow=none;html=1;rounded=0;exitX=0.75;exitY=0;exitDx=0;exitDy=0;entryX=0.75;entryY=1;entryDx=0;entryDy=0;" parent="1" source="GuPjeiB4Vvk6E0f5icBI-24" target="GuPjeiB4Vvk6E0f5icBI-17" edge="1">
          <mxGeometry width="50" height="50" relative="1" as="geometry">
            <mxPoint x="223" y="330" as="sourcePoint" />
            <mxPoint x="419" y="210" as="targetPoint" />
            <Array as="points">
              <mxPoint x="588" y="250" />
              <mxPoint x="248" y="250" />
            </Array>
          </mxGeometry>
        </mxCell>
        <mxCell id="tYHoVu3lLdIAYSy5rbmb-3" value="&lt;font face=&quot;Times New Roman&quot;&gt;&lt;span style=&quot;font-size: 22px;&quot;&gt;&lt;b&gt;&lt;u&gt;Android OS&lt;/u&gt;&lt;/b&gt;&lt;/span&gt;&lt;/font&gt;" style="text;html=1;align=center;verticalAlign=middle;whiteSpace=wrap;rounded=0;" vertex="1" parent="1">
          <mxGeometry x="490" y="130" width="120" height="30" as="geometry" />
        </mxCell>
      </root>
    </mxGraphModel>
  </diagram>
</mxfile>
